#!OML:ASF H:\BabyWalks\Project 1\Capture day 1\Session 1\baby.ASF
:FULLY-SPECIFIED
:DEGREES
672
root 34.8944 16.82 -0.358814 166.503 69.6787 165.876
lowerback 27.006 -2.56182 -5.56729
upperback 6.80157 -4.08157 -0.483367
thorax -6.9374 -1.58696 3.91177
lowerneck -1.38997 -4.63033 1.16963
upperneck -10.0213 -5.89903 1.82501
head -2.92789 -2.96168 0.507565
rclavicle 5.75979e-014 -8.15017e-015
rhumerus -49.4105 12.1591 -80.4784
rradius 46.8194
rwrist -3.77483
rhand -14.9989 -22.207
rfingers 7.12502
rthumb 11.1658 -51.8899
lclavicle 5.75979e-014 -8.15017e-015
lhumerus 4.29208 -30.5532 70.0585
lradius 74.8725
lwrist -1.05728
lhand -6.57721 1.80458
lfingers 7.12502
lthumb 19.2774 30.8691
rfemur -32.1622 -3.25841 11.1959
rtibia 42.3894
rfoot -7.76787 -4.65196
rtoes 0.360749
lfemur -6.54319 -9.65889 -18.1794
ltibia 38.3076
lfoot -31.5343 -17.6762
ltoes 1.47623
673
root 34.999 16.7914 -0.329187 165.952 69.4998 165.206
lowerback 26.8806 -2.52192 -5.67156
upperback 6.89157 -4.0346 -0.452531
thorax -6.76796 -1.56877 3.98023
lowerneck -1.50025 -4.69258 1.34998
upperneck -10.0868 -6.0037 1.51426
head -2.94655 -3.00926 0.379225
rclavicle -3.02898e-014 1.68967e-015
rhumerus -48.5008 11.581 -80.0981
rradius 45.9336
rwrist -3.08648
rhand -15.0686 -22.3831
rfingers 7.12502
rthumb 11.0986 -52.0696
lclavicle -3.02898e-014 1.68967e-015
lhumerus 4.82145 -30.4649 70.1889
lradius 74.5068
lwrist -1.57516
lhand -6.65939 1.67594
lfingers 7.12502
lthumb 19.1984 30.7484
rfemur -32.5593 -3.10559 11.0764
rtibia 43.7468
rfoot -8.68982 -4.98365
rtoes 0.0363611
lfemur -6.52197 -9.59981 -18.2319
ltibia 38.7034
lfoot -31.5924 -18.0359
ltoes 1.38081
674
root 35.1009 16.7713 -0.301858 165.386 69.3237 164.449
lowerback 26.727 -2.49731 -5.80379
upperback 6.96806 -4.01567 -0.423537
thorax -6.59495 -1.5649 4.07015
lowerneck -1.65952 -4.72269 1.51483
upperneck -10.1059 -6.06835 1.19092
head -2.9411 -3.03587 0.24636
rclavicle 2.05928e-015 -1.24737e-014
rhumerus -47.5518 10.9634 -79.6976
rradius 45.147
rwrist -2.38176
rhand -15.2502 -22.6217
rfingers 7.12502
rthumb 10.9234 -52.3176
lclavicle 2.05928e-015 -1.24737e-014
lhumerus 5.1961 -30.2683 70.4224
lradius 74.0952
lwrist -2.0092
lhand -6.66883 1.56015
lfingers 7.12502
lthumb 19.1893 30.6335
rfemur -32.9193 -2.94408 10.9131
rtibia 44.8818
rfoot -9.50959 -5.32052
rtoes -0.206721
lfemur -6.49787 -9.5317 -18.3254
ltibia 38.9248
lfoot -31.559 -18.3593
ltoes 1.31085
675
root 35.1996 16.7589 -0.276768 164.838 69.1319 163.663
lowerback 26.5701 -2.49902 -5.9396
upperback 7.02908 -4.03286 -0.389189
thorax -6.43317 -1.57864 4.17918
lowerneck -1.8327 -4.72488 1.64629
upperneck -10.1149 -6.09701 0.858889
head -2.92929 -3.04315 0.115024
rclavicle 1.19892e-013 -5.45912e-014
rhumerus -46.6076 10.3542 -79.3072
rradius 44.5108
rwrist -1.71075
rhand -15.5835 -22.9195
rfingers 7.12502
rthumb 10.6019 -52.632
lclavicle 1.19892e-013 -5.45912e-014
lhumerus 5.41664 -29.9854 70.7526
lradius 73.6473
lwrist -2.31833
lhand -6.61653 1.47368
lfingers 7.12502
lthumb 19.2396 30.542
rfemur -33.2338 -2.79369 10.7188
rtibia 45.8167
rfoot -10.2324 -5.64992
rtoes -0.421918
lfemur -6.46048 -9.47911 -18.444
ltibia 38.9749
lfoot -31.4435 -18.6629
ltoes 1.29033
676
root 35.2952 16.7533 -0.254068 164.396 68.9244 162.957
lowerback 26.4215 -2.53773 -6.03664
upperback 7.07736 -4.0881 -0.336879
thorax -6.28714 -1.61096 4.29787
lowerneck -2.00118 -4.6999 1.73548
upperneck -10.1386 -6.09015 0.511843
head -2.92253 -3.03074 -0.0143727
rclavicle -8.44835e-015 9.0447e-015
rhumerus -45.6985 9.80781 -78.9536
rradius 44.0586
rwrist -1.11339
rhand -16.0843 -23.2532
rfingers 7.12502
rthumb 10.1188 -52.9899
lclavicle -8.44835e-015 9.0447e-015
lhumerus 5.48714 -29.6345 71.1677
lradius 73.176
lwrist -2.48788
lhand -6.53017 1.42075
lfingers 7.12502
lthumb 19.3226 30.4808
rfemur -33.4923 -2.66221 10.535
rtibia 46.5687
rfoot -10.8605 -5.97172
rtoes -0.644159
lfemur -6.39483 -9.45427 -18.547
ltibia 38.8669
lfoot -31.282 -18.9502
ltoes 1.30608
677
root 35.3877 16.7535 -0.234067 164.173 68.7223 162.457
lowerback 26.281 -2.6206 -6.04078
upperback 7.10858 -4.1771 -0.255087
thorax -6.16569 -1.65995 4.40684
lowerneck -2.14994 -4.64876 1.79118
upperneck -10.1896 -6.04979 0.134187
head -2.92846 -2.99936 -0.147717
rclavicle -2.9768e-014 -1.09332e-014
rhumerus -44.8562 9.37697 -78.6624
rradius 43.8208
rwrist -0.633078
rhand -16.7528 -23.6
rfingers 7.12502
rthumb 9.47387 -53.367
lclavicle -2.9768e-014 -1.09332e-014
lhumerus 5.4126 -29.2384 71.6463
lradius 72.6919
lwrist -2.53409
lhand -6.43114 1.40352
lfingers 7.12502
lthumb 19.4179 30.454
rfemur -33.7011 -2.5362 10.4165
rtibia 47.1521
rfoot -11.4047 -6.28914
rtoes -0.854617
lfemur -6.30233 -9.45143 -18.5782
ltibia 38.6154
lfoot -31.1066 -19.2224
ltoes 1.32333
678
root 35.4772 16.759 -0.217287 164.19 68.5467 162.18
lowerback 26.1458 -2.74535 -5.92769
upperback 7.11512 -4.29269 -0.146198
thorax -6.07911 -1.72191 4.48758
lowerneck -2.26287 -4.57345 1.82259
upperneck -10.2732 -5.97876 -0.278124
head -2.95211 -2.95047 -0.287524
rclavicle 4.35338e-014 -3.51849e-014
rhumerus -44.1134 9.0941 -78.4528
rradius 43.8124
rwrist -0.303542
rhand -17.5659 -23.9217
rfingers 7.12502
rthumb 8.6893 -53.7229
lclavicle 4.35338e-014 -3.51849e-014
lhumerus 5.18407 -28.8265 72.1683
lradius 72.2177
lwrist -2.50091
lhand -6.34077 1.41831
lfingers 7.12502
lthumb 19.5047 30.46
rfemur -33.8752 -2.40691 10.3807
rtibia 47.5861
rfoot -11.8737 -6.59991
rtoes -1.05136
lfemur -6.18084 -9.45577 -18.5232
ltibia 38.2269
lfoot -30.9387 -19.4749
ltoes 1.32474
679
root 35.5641 16.7689 -0.204233 164.353 68.4071 162.029
lowerback 26.0075 -2.90249 -5.72393
upperback 7.0959 -4.43064 -0.0225035
thorax -6.02403 -1.79468 4.53993
lowerneck -2.33866 -4.4755 1.83886
upperneck -10.3852 -5.87957 -0.72596
head -2.99258 -2.88541 -0.435944
rclavicle -3.07122e-014 6.16232e-014
rhumerus -43.4817 8.99237 -78.3329
rradius 44.0341
rwrist -0.154432
rhand -18.4754 -24.1806
rfingers 7.12502
rthumb 7.81153 -54.0163
lclavicle -3.07122e-014 6.16232e-014
lhumerus 4.80425 -28.4194 72.7092
lradius 71.7674
lwrist -2.4349
lhand -6.25376 1.45964
lfingers 7.12502
lthumb 19.5884 30.4928
rfemur -34.0262 -2.282 10.3967
rtibia 47.8949
rfoot -12.2843 -6.87898
rtoes -1.17994
lfemur -6.01999 -9.45353 -18.4203
ltibia 37.7009
lfoot -30.7848 -19.6961
ltoes 1.29977
680
root 35.6486 16.7826 -0.19489 164.571 68.3161 161.906
lowerback 25.8668 -3.07807 -5.46297
upperback 7.04718 -4.58325 0.10268
thorax -6.00426 -1.87417 4.56627
lowerneck -2.37343 -4.35503 1.85913
upperneck -10.5214 -5.7528 -1.20947
head -3.04966 -2.80497 -0.596655
rclavicle -6.72886e-014 -3.20043e-014
rhumerus -42.9655 9.06563 -78.3004
rradius 44.4706
rwrist -0.192375
rhand -19.4182 -24.3266
rfingers 7.12502
rthumb 6.90146 -54.1941
lclavicle -6.72886e-014 -3.20043e-014
lhumerus 4.271 -28.0371 73.2467
lradius 71.356
lwrist -2.38859
lhand -6.20153 1.4897
lfingers 7.12502
lthumb 19.6386 30.5177
rfemur -34.1698 -2.15714 10.4343
rtibia 48.1024
rfoot -12.6496 -7.11293
rtoes -1.23693
lfemur -5.80849 -9.42 -18.3046
ltibia 37.0323
lfoot -30.6422 -19.8815
ltoes 1.25443
681
root 35.7312 16.7992 -0.189003 164.748 68.2811 161.716
lowerback 25.7156 -3.25859 -5.18628
upperback 6.97444 -4.74344 0.217849
thorax -6.00798 -1.9572 4.57481
lowerneck -2.37386 -4.21242 1.89731
upperneck -10.6758 -5.59912 -1.72386
head -3.12032 -2.70999 -0.771236
rclavicle -1.43125e-014 1.70955e-014
rhumerus -42.5528 9.29548 -78.342
rradius 45.0973
rwrist -0.424321
rhand -20.3313 -24.3101
rfingers 7.12502
rthumb 6.01993 -54.2046
lclavicle -1.43125e-014 1.70955e-014
lhumerus 3.59503 -27.6898 73.7599
lradius 70.997
lwrist -2.39102
lhand -6.14825 1.50284
lfingers 7.12502
lthumb 19.6898 30.5257
rfemur -34.3144 -2.02689 10.4592
rtibia 48.2324
rfoot -12.9856 -7.28883
rtoes -1.20508
lfemur -5.53286 -9.33341 -18.2138
ltibia 36.2148
lfoot -30.4964 -20.0319
ltoes 1.20001
682
root 35.8122 16.8183 -0.186043 164.833 68.3122 161.417
lowerback 25.5664 -3.43258 -4.91793
upperback 6.87877 -4.90299 0.318372
thorax -6.03916 -2.03943 4.57269
lowerneck -2.34715 -4.04818 1.94909
upperneck -10.8341 -5.418 -2.24782
head -3.19705 -2.60085 -0.952875
rclavicle 1.37161e-014 -1.98785e-015
rhumerus -42.234 9.65035 -78.4388
rradius 45.8822
rwrist -0.84044
rhand -21.162 -24.0974
rfingers 7.12502
rthumb 5.21791 -54.0132
lclavicle 1.37161e-014 -1.98785e-015
lhumerus 2.78504 -27.3913 74.2387
lradius 70.6873
lwrist -2.45374
lhand -6.09502 1.49389
lfingers 7.12502
lthumb 19.741 30.5115
rfemur -34.4602 -1.88376 10.4621
rtibia 48.3019
rfoot -13.2982 -7.40711
rtoes -1.14211
lfemur -5.17571 -9.17616 -18.1624
ltibia 35.249
lfoot -30.3404 -20.1458
ltoes 1.13829
683
root 35.8919 16.8388 -0.185149 164.766 68.4153 160.958
lowerback 25.4236 -3.58977 -4.69674
upperback 6.76815 -5.05729 0.401239
thorax -6.08825 -2.11861 4.57737
lowerneck -2.30927 -3.86627 2.0084
upperneck -10.9835 -5.21318 -2.76007
head -3.27136 -2.48017 -1.13418
rclavicle -1.21259e-014 -1.07344e-014
rhumerus -41.9847 10.1056 -78.5757
rradius 46.7889
rwrist -1.43401
rhand -21.8543 -23.6784
rfingers 7.12502
rthumb 4.54942 -53.6096
lclavicle -1.21259e-014 -1.07344e-014
lhumerus 1.85105 -27.1381 74.6726
lradius 70.434
lwrist -2.5526
lhand -6.01566 1.47053
lfingers 7.12502
lthumb 19.8173 30.4802
rfemur -34.6048 -1.71417 10.4288
rtibia 48.3257
rfoot -13.5911 -7.47409
rtoes -1.06262
lfemur -4.72569 -8.93675 -18.1672
ltibia 34.1423
lfoot -30.16 -20.2256
ltoes 1.08609
